/* XPM */
static char *gnumed[] = {
/* columns rows colors chars-per-pixel */
"28 32 33 1",
"  c #002000240016",
". c #096D094C0629",
"X c #138E161C0D7C",
"o c #1A492AF71259",
"O c #254A32F21B70",
"+ c #329D32923095",
"@ c #2CAF1A6B1906",
"# c #2C0C4C711CA9",
"$ c #365852B22883",
"% c #3BFA6A3D2833",
"& c #4EDA2EC62DD1",
"* c #5FAD1D2C1E7E",
"= c #41613E4A42F6",
"- c #42FC4E153BEC",
"; c #455B736B2FBE",
": c #551755DD51A4",
"> c #5F0B5F2F62AE",
", c #5A03686752E0",
"< c #65A46E135E23",
"1 c #6FFF6F406C96",
"2 c #66DF5B8A57E3",
"3 c #776C78D087DB",
"4 c #4B818900329F",
"5 c #51FB8BA4378C",
"6 c #6D0F8D405CC9",
"7 c #90EA2B872E90",
"8 c #9BBB70A46F4A",
"9 c #859F85DF7D72",
"0 c #8E9B8E258BD1",
"q c #A205A20AA009",
"w c #AE18AD4AABA1",
"e c #C97DA965A7DB",
"r c None",
/* pixels */
"rrrrrrr .X+X. .  rrrrrrrrrrr",
"rrrrrrr O0q,.....  rrrrrrrrr",
"rrrrr  o60664;%$$#o.   rrrrr",
"rrrrr .%56666655544%o. rrrrr",
"rrrr  #4446q0,#$4445;#.  rrr",
"rr   X;444596o .X#;4;;#. rrr",
"r .***-#$####. r  o%-2,#. rr",
"r.***@.XX.o.       X#$0,#  r",
"r.**:X  .@=+X@ .    XO09%O  ",
"r .177X .+1>:::31:X  X1q-%X ",
"r Xq&7&+>11981qwew:. O0q,;%.",
"r @q880ww8<00031wwq<:9wq:;4X",
" .&88eww0>>6wq1>11qqww01$44O",
"X77*28>21>10wq031>10061+;44#",
"X*@ .X+>>:1100313<:=++O%55%o",
" ..  X>>=+1300816<>-#%4444# ",
"    .X>:==<666,66%544444%#. ",
"rrr .X#$%455444444444%##o.  ",
"rr. X$;5555444;;%%%%%#oX. rr",
"r .O445544%;%%%,%$$ooo   rrr",
"  #555%#$,:::-9631:.oo rrrrr",
" o555#o-:><11:0916>X$o rrrrr",
" O55%.+1109>>:9110>o#..rrrrr",
" O55$ O>1q9<>:1:>3:#O  rrrrr",
" .$44X.:011>2,1>>1$#. rrrrrr",
"  X%4;o$111110311,OX rrrrrrr",
"r  X%45$:081122>:OX rrrrrrrr",
"rr  .$4:<>::118$XX rrrrrrrrr",
"rrrr .O#>1<111>:o  rrrrrrrrr",
"rrrrr   .X+>1181+ rrrrrrrrrr",
"rrrrrrrr  .+&>1+. rrrrrrrrrr",
"rrrrrrrrrr ..++. rrrrrrrrrrr"
};
