<?xml version="1.0" encoding="UTF-8" standalone="no"?>
<svg
   xmlns:dc="http://purl.org/dc/elements/1.1/"
   xmlns:cc="http://creativecommons.org/ns#"
   xmlns:rdf="http://www.w3.org/1999/02/22-rdf-syntax-ns#"
   xmlns:svg="http://www.w3.org/2000/svg"
   xmlns="http://www.w3.org/2000/svg"
   xmlns:sodipodi="http://sodipodi.sourceforge.net/DTD/sodipodi-0.dtd"
   xmlns:inkscape="http://www.inkscape.org/namespaces/inkscape"
   version="1.0"
   width="110px"
   height="110px"
   viewBox="0 0 1100 1100"
   preserveAspectRatio="xMidYMid meet"
   id="svg117"
   sodipodi:docname="gm_icon-serpent_and_gnu.svg"
   inkscape:version="1.0.1 (3bc2e813f5, 2020-09-07)">
  <metadata
     id="metadata123">
    <rdf:RDF>
      <cc:Work
         rdf:about="">
        <dc:format>image/svg+xml</dc:format>
        <dc:type
           rdf:resource="http://purl.org/dc/dcmitype/StillImage" />
        <dc:title></dc:title>
      </cc:Work>
    </rdf:RDF>
  </metadata>
  <defs
     id="defs121" />
  <sodipodi:namedview
     pagecolor="#ffffff"
     bordercolor="#666666"
     borderopacity="1"
     objecttolerance="10"
     gridtolerance="10"
     guidetolerance="10"
     inkscape:pageopacity="0"
     inkscape:pageshadow="2"
     inkscape:window-width="950"
     inkscape:window-height="1015"
     id="namedview119"
     showgrid="false"
     inkscape:zoom="3.8136364"
     inkscape:cx="55.673867"
     inkscape:cy="40.166771"
     inkscape:window-x="0"
     inkscape:window-y="0"
     inkscape:window-maximized="0"
     inkscape:current-layer="svg117"
     inkscape:document-rotation="0" />
  <g
     id="layer101"
     fill="#000000"
     stroke="none">
    <path
       d="m 510,1076 c 0,-8 -14,-17 -32,-21 -18,-4 -40,-13 -48,-20 -8,-7 -32,-15 -52,-19 C 304,1003 191.97524,909.5713 156.52984,861.30301 134.89305,828.28021 121.8697,806.09572 120.8697,766.09572 131.87548,687.46653 147.95973,687.99417 211,615 c 52,-41 78,-103 52,-122 -25,-19 -43,-16 -65,12 -24,31 -50,32 -90,4 -39,-28 -34,-56 17,-85 36,-20 40,-26 43,-66 2,-34 -2,-48 -18,-63 -11,-10 -20,-26 -20,-36 0,-23 44,-57 84,-65 23,-4 37,-15 50,-39 10,-18 30,-46 46,-63 15,-17 38,-45 50,-61 17,-25 28,-31 59,-31 23,0 48,8 64,20 18,14 40,20 76,20 58,0 168.75658,34.598339 234.91386,74.79317 127.92928,102.56184 167.74801,168.22721 213.53414,256.19822 11.9066,45.71155 18.8729,79.62625 11.2015,104.02996 L 1003.9343,521.83157 960,582 c -33,31 -76,62 -95,69 -30,11 -35,17 -35,46 0,19 -6,49 -14,68 -17,40 -82,130 -120,164 -17,16 -26,35 -26,56 0,32 -31,70 -77,94 -31,16 -83,14 -83,-3 z M 290,773 c -1,-24 -2,-26 -11,-10 -5,9 -7,22 -4,27 10,17 15,11 15,-17 z M 810,351 c 0,-13 -117,-113 -163,-139 -52,-30 -77,-29 -77,3 0,14 -7,28 -15,31 -25,10 9,34 48,34 23,0 50,12 88,39 51,37 119,55 119,32 z M 350,325 c 0,-8 10,-23 22,-35 l 22,-20 h -54 -53 l 21,23 c 12,13 22,29 22,35 0,7 5,12 10,12 6,0 10,-7 10,-15 z m 150,-50 c 11,-13 8,-15 -15,-15 -23,0 -26,2 -15,15 7,8 14,15 15,15 1,0 8,-7 15,-15 z"
       id="path2"
       sodipodi:nodetypes="sssccccccccccsccccscsccscccsccscsccccscscscsscccccssscscsc" />
  </g>
  <g
     id="layer102"
     fill="#2c2e27"
     stroke="none">
    <path
       d="M529 1085 c-1 -6 -1 -13 0 -17 0 -5 -5 -8 -11 -8 -9 0 -8 -4 2 -10 12 -8 9 -10 -13 -10 -16 0 -43 -11 -60 -24 -18 -13 -54 -29 -82 -35 -60 -14 -128 -62 -181 -127 -32 -38 -39 -55 -39 -90 0 -36 6 -49 38 -82 21 -21 65 -52 97 -67 59 -28 84 -54 34 -35 -35 14 -34 14 -34 -25 0 -19 4 -35 9 -35 5 0 8 -8 7 -17 -2 -10 -17 -21 -37 -26 -19 -5 -40 -14 -48 -20 -10 -9 -18 -5 -36 17 -20 25 -24 27 -44 15 -31 -20 -26 -35 16 -56 34 -16 38 -22 37 -56 -1 -20 2 -37 5 -37 4 0 7 -9 7 -20 0 -13 -7 -20 -18 -20 -12 0 -18 -8 -18 -24 0 -29 13 -40 67 -57 36 -10 48 -21 72 -63 16 -28 44 -68 63 -90 28 -32 40 -39 73 -40 34 -1 40 2 43 20 3 19 12 22 95 28 133 10 130 9 195 49 100 62 221 213 233 292 8 50 -8 90 -55 143 -37 40 -123 88 -180 99 -36 7 -49 22 -34 40 6 7 7 28 3 49 -9 50 9 35 25 -21 7 -24 19 -50 26 -56 23 -19 17 48 -10 110 -26 61 -111 155 -132 147 -9 -3 -14 2 -14 13 0 10 7 21 15 25 8 3 14 11 13 17 -4 17 -78 89 -92 89 -7 0 -17 5 -24 12 -7 7 -13 8 -13 3z m-201 -251 c-1 -20 -8 -38 -15 -41 -15 -6 -18 -43 -3 -43 6 0 9 -6 8 -12 -2 -9 11 -13 42 -12 25 1 35 0 23 -3 -14 -3 -20 -9 -17 -18 5 -11 -1 -12 -33 -3 -91 25 -116 107 -45 151 38 24 43 22 40 -19z m520 -345 c24 -18 42 -41 42 -53 0 -5 -16 5 -35 24 -27 27 -44 34 -74 35 -28 0 -37 3 -30 11 11 14 70 3 97 -17z m-34 -125 c12 -16 10 -23 -22 -61 -19 -24 -52 -57 -72 -73 -76 -61 -180 -90 -194 -55 -3 8 -1 15 4 15 6 0 10 7 10 15 0 22 -42 29 -166 30 -62 0 -107 3 -102 6 6 4 2 15 -11 28 l-21 21 23 9 c28 11 51 37 43 49 -3 5 7 8 22 7 68 -5 68 -5 52 -15 -12 -8 -10 -10 10 -11 l25 -1 -25 -7 c-21 -6 -22 -8 -7 -14 9 -3 17 -14 17 -24 0 -15 2 -15 16 3 15 19 15 18 11 -3 -6 -27 -4 -28 27 -8 32 21 69 27 78 12 5 -9 10 -9 20 2 11 11 11 13 -1 6 -9 -5 -12 -3 -9 5 4 14 58 21 58 8 0 -4 7 -8 16 -8 8 0 13 4 10 9 -4 5 3 7 14 4 22 -6 74 23 65 37 -9 15 37 39 67 36 16 -2 35 -12 42 -22z m-554 -9 c0 -16 -6 -25 -15 -25 -18 0 -18 5 -5 31 14 26 20 24 20 -6z m-10 -107 c0 -4 -11 -3 -25 4 -13 6 -22 15 -19 19 5 9 44 -11 44 -23z"
       id="path5" />
  </g>
  <g
     id="layer103"
     fill="#413341"
     stroke="none">
    <path
       d="M530 1072 c0 -7 5 -22 11 -33 9 -18 7 -19 -18 -13 -15 3 -34 7 -40 10 -8 2 -13 -5 -13 -16 0 -11 -6 -20 -14 -20 -7 0 -19 -7 -27 -16 -7 -9 -22 -14 -36 -11 -13 2 -23 -1 -23 -7 0 -7 -3 -7 -8 1 -20 32 -182 -96 -212 -167 -31 -74 40 -154 184 -206 53 -19 61 -25 62 -48 1 -15 4 -30 8 -34 5 -4 7 0 6 8 -4 26 0 50 8 50 4 0 7 -35 7 -77 0 -43 4 -86 9 -97 7 -15 5 -17 -10 -14 -15 3 -18 11 -15 46 3 52 -33 113 -82 137 -41 21 -46 19 -44 -12 1 -19 14 -37 40 -56 42 -31 48 -46 15 -41 -67 11 -114 9 -125 -6 -10 -13 -14 -12 -32 9 -12 13 -21 28 -21 33 0 4 -4 8 -10 8 -5 0 -10 -7 -10 -15 0 -8 -4 -15 -10 -15 -5 0 -10 -4 -10 -10 0 -5 6 -10 14 -10 31 0 54 -35 58 -86 4 -50 26 -91 61 -113 13 -9 17 -8 17 3 0 8 -7 16 -15 20 -19 7 -20 26 -2 26 23 0 50 37 44 60 -6 22 3 26 21 8 7 -7 12 -9 12 -5 0 4 16 1 36 -8 19 -8 38 -14 42 -14 26 4 34 -2 22 -16 -7 -8 -15 -13 -19 -11 -4 3 -8 -4 -8 -15 -2 -17 1 -18 13 -8 19 16 30 4 14 -16 -7 -8 -10 -15 -6 -15 7 0 47 39 44 43 -1 1 3 11 9 22 11 19 12 18 18 -6 5 -20 11 -25 25 -22 11 3 24 11 30 18 11 14 50 9 50 -6 0 -5 7 -9 16 -9 9 0 12 5 8 12 -4 6 -3 8 4 4 13 -8 83 24 76 35 -7 11 37 39 62 39 24 0 57 -26 67 -52 7 -21 -20 -118 -33 -118 -15 0 -12 34 5 56 8 10 15 27 15 36 0 10 -21 -6 -56 -42 -31 -33 -79 -71 -107 -85 -77 -38 -161 -31 -126 11 18 22 7 26 -83 35 -130 12 -151 11 -144 -6 3 -8 -2 -18 -10 -23 -14 -8 -13 -15 11 -53 47 -76 95 -119 132 -119 26 0 33 4 33 19 0 17 11 19 104 26 85 5 116 12 163 35 70 34 148 109 214 208 39 58 49 82 49 114 0 55 -39 119 -95 158 -52 36 -144 70 -188 70 -25 0 -28 2 -17 15 30 36 -20 215 -61 223 -15 3 -15 -2 -3 -50 8 -29 13 -71 13 -93 -1 -32 -3 -28 -10 23 -11 84 -25 126 -57 164 -15 18 -21 29 -15 25 16 -10 53 10 53 28 0 8 -7 15 -15 15 -8 0 -15 9 -15 19 0 12 -9 23 -22 27 -13 4 -26 12 -30 18 -5 8 -8 7 -8 -2z m-133 -145 c30 14 36 14 70 -2 20 -10 53 -18 72 -19 46 -1 69 -40 76 -127 5 -53 4 -60 -6 -39 -6 14 -11 43 -10 66 2 69 -22 83 -172 100 -37 4 -48 2 -53 -10 -3 -9 -12 -16 -20 -16 -8 0 -14 -10 -14 -25 0 -37 0 -39 -14 -55 -38 -44 -18 -69 56 -72 35 -1 42 -3 21 -5 -24 -3 -30 -8 -26 -20 5 -13 0 -14 -28 -8 -55 12 -85 32 -99 65 -18 43 -2 72 55 106 45 26 46 28 41 63 -6 35 -6 35 6 9 13 -27 13 -27 45 -11z m158 -158 c-3 -9 -6 -32 -7 -52 -1 -27 -5 -35 -19 -34 -10 1 -15 5 -13 9 3 4 -3 8 -13 8 -13 1 -11 5 10 16 29 16 34 41 16 75 -9 18 -8 19 10 7 13 -8 19 -19 16 -29z m-185 12 c0 -14 -18 -23 -30 -16 -6 4 -8 11 -5 16 8 12 35 12 35 0z m130 -16 c0 -8 -4 -15 -9 -15 -5 0 -14 7 -21 15 -10 13 -9 15 9 15 12 0 21 -6 21 -15z m280 -247 c0 -6 3 -9 6 -5 13 12 84 -34 109 -70 26 -39 36 -123 14 -123 -5 0 -8 -3 -6 -7 6 -11 -56 -96 -73 -101 -8 -3 -3 8 12 24 15 16 36 51 48 77 18 40 20 53 10 81 -15 48 -48 74 -109 87 -48 10 -56 9 -80 -9 -25 -18 -27 -18 -27 -2 0 10 5 16 11 14 6 -3 22 7 35 21 25 26 50 33 50 13z m-180 -19 c-7 -11 -14 -19 -16 -16 -7 7 7 37 17 37 6 0 5 -9 -1 -21z m57 -43 c-3 -8 -1 -16 6 -19 7 -2 2 -9 -12 -16 -19 -11 -22 -11 -15 1 9 13 10 18 13 38 0 6 4 10 7 10 3 0 4 -6 1 -14z m-387 -101 c0 -24 -24 -44 -37 -31 -9 8 14 56 27 56 5 0 10 -11 10 -25z m550 -160 c0 -2 -13 -11 -30 -20 -18 -9 -30 -11 -30 -5 0 6 10 15 23 20 26 10 37 12 37 5z"
       id="path8" />
    <path
       d="M177 289 c-9 -6 -17 -16 -17 -23 0 -14 98 -61 107 -52 6 5 -56 46 -71 46 -5 0 -3 6 3 14 15 18 1 27 -22 15z"
       id="path10" />
  </g>
  <g
     id="layer104"
     fill="#365d23"
     stroke="none">
    <path
       d="M540 1040 c10 -19 9 -20 -14 -14 -14 3 -34 3 -43 -1 -16 -7 -15 -9 7 -15 22 -7 21 -8 -12 -9 -21 -1 -38 -5 -38 -9 0 -5 17 -13 38 -18 32 -9 27 -10 -33 -6 -56 3 -73 1 -84 -11 -7 -9 -10 -21 -6 -27 8 -13 42 -13 50 0 8 13 52 13 57 -1 2 -6 28 -14 58 -17 47 -6 56 -11 73 -40 11 -18 21 -58 23 -95 4 -52 3 -58 -7 -37 -6 14 -11 39 -10 55 1 40 -17 83 -38 89 -9 3 -52 10 -96 16 -69 9 -82 8 -91 -5 -6 -8 -16 -15 -23 -15 -6 0 -10 -13 -9 -29 1 -17 -5 -38 -15 -49 -37 -41 -14 -71 58 -74 35 -1 40 -2 18 -5 -24 -3 -30 -8 -26 -20 5 -13 0 -14 -28 -8 -55 12 -85 32 -99 65 -18 43 -2 72 55 106 42 24 45 29 40 56 -4 17 -2 35 6 44 10 13 8 13 -16 4 -66 -25 -157 -110 -186 -174 -33 -72 55 -161 209 -210 l67 -21 -3 -64 c-2 -35 2 -77 9 -93 16 -38 7 -44 -23 -16 -13 13 -17 17 -8 11 15 -12 16 -8 10 35 -7 57 -45 112 -89 129 -30 11 -31 10 -31 -17 0 -20 10 -35 35 -54 19 -15 35 -30 35 -34 0 -4 -27 -5 -59 -4 -34 2 -69 -2 -82 -9 -20 -10 -25 -9 -45 16 -21 27 -23 27 -39 11 -20 -19 -21 -18 22 -35 29 -12 33 -18 33 -53 0 -50 20 -97 56 -128 l28 -25 -17 27 c-18 29 -23 53 -8 44 15 -10 41 18 43 47 3 31 4 32 50 12 20 -8 48 -16 63 -19 38 -7 38 -9 13 -42 -15 -19 -16 -24 -5 -15 22 18 34 7 17 -16 -7 -10 2 -2 19 17 17 19 31 38 31 43 0 4 6 2 14 -5 7 -7 11 -19 9 -26 -6 -15 24 -6 47 14 13 11 20 11 43 -1 15 -7 27 -10 27 -4 0 5 11 9 25 9 15 0 38 14 59 35 40 40 72 44 106 15 30 -26 30 -74 1 -132 -11 -23 -19 -44 -17 -46 9 -8 68 67 92 115 23 45 24 56 15 86 -16 47 -48 74 -101 86 -64 15 -64 15 -115 -29 -46 -40 -66 -51 -48 -27 5 6 11 30 12 51 2 22 7 49 11 60 5 13 6 0 3 -34 -6 -50 -5 -54 10 -41 9 7 14 17 11 22 -3 5 1 6 8 4 8 -3 25 6 38 20 25 26 50 33 50 13 0 -6 3 -9 6 -5 13 12 84 -34 109 -70 37 -56 34 -105 -13 -172 -38 -56 -107 -119 -118 -108 -3 3 1 16 10 29 9 12 16 32 16 43 0 12 7 30 15 41 8 10 15 27 15 36 0 10 -21 -6 -56 -42 -31 -33 -79 -71 -107 -85 -77 -38 -161 -31 -126 11 18 22 7 26 -83 35 -130 12 -151 11 -144 -6 3 -8 -2 -18 -10 -23 -14 -8 -13 -15 11 -53 47 -76 95 -119 132 -119 26 0 33 4 33 19 0 17 11 19 104 26 85 5 116 12 163 35 70 34 148 109 214 208 39 58 49 82 49 114 0 55 -39 119 -95 158 -52 36 -144 70 -189 70 -23 0 -27 3 -18 12 37 37 -19 228 -67 228 -4 0 -2 -23 5 -52 8 -29 14 -74 14 -100 0 -26 5 -50 10 -53 6 -3 10 -12 10 -18 0 -7 -7 -4 -14 5 -7 10 -16 51 -19 91 -6 80 -26 138 -60 176 -12 13 -16 21 -10 17 17 -9 53 11 53 29 0 8 -7 15 -15 15 -8 0 -15 9 -15 19 0 19 -18 31 -46 31 -12 0 -12 -4 -4 -20z m-19 -232 c28 -15 38 -27 34 -39 -3 -9 -6 -32 -7 -52 -1 -27 -5 -35 -19 -34 -10 1 -15 5 -13 9 3 4 -3 8 -13 8 -13 1 -11 5 10 16 53 29 27 85 -49 103 -34 8 -35 9 -10 10 15 1 46 -9 67 -21z m-151 -27 c0 -14 -18 -23 -30 -16 -6 4 -8 11 -5 16 8 12 35 12 35 0z m130 -17 c0 -17 -12 -18 -28 -2 -18 18 -15 27 8 21 11 -3 20 -12 20 -19z m98 -266 c-9 -13 -24 -24 -34 -25 -14 -1 -15 -1 -3 3 10 3 19 14 22 25 3 10 11 19 17 19 9 0 8 -6 -2 -22z m-328 -143 c0 -24 -24 -44 -37 -31 -9 8 14 56 27 56 5 0 10 -11 10 -25z m231 -218 c-13 -13 -26 -3 -16 12 3 6 11 8 17 5 6 -4 6 -10 -1 -17z m-61 -57 c0 -5 -7 -10 -15 -10 -8 0 -15 5 -15 10 0 6 7 10 15 10 8 0 15 -4 15 -10z"
       id="path13" />
    <path
       d="M678 888 c23 -24 42 -53 42 -65 0 -11 6 -26 14 -32 8 -6 19 -31 24 -54 6 -23 18 -51 27 -62 16 -19 16 -17 11 28 -3 26 -15 65 -26 87 -24 47 -84 116 -114 132 -12 6 -2 -9 22 -34z"
       id="path15" />
  </g>
  <g
     id="layer105"
     fill="#5a5a54"
     stroke="none">
    <path
       d="M540 1040 c10 -19 9 -20 -14 -14 -14 3 -34 3 -43 -1 -16 -7 -15 -9 7 -15 22 -7 21 -8 -12 -9 -21 -1 -38 -5 -38 -9 0 -5 17 -13 38 -18 32 -9 27 -10 -33 -6 -56 3 -73 1 -84 -11 -7 -9 -10 -21 -6 -27 8 -13 42 -13 50 0 8 13 52 13 57 -1 2 -6 28 -14 58 -17 47 -6 56 -11 73 -40 11 -18 21 -58 23 -95 4 -52 3 -58 -7 -37 -6 14 -11 39 -10 55 1 40 -17 83 -38 89 -9 3 -52 10 -96 16 -69 9 -82 8 -91 -5 -6 -8 -16 -15 -23 -15 -6 0 -10 -13 -9 -29 1 -17 -5 -38 -15 -49 -37 -41 -14 -71 58 -74 36 -1 41 -2 17 -5 -28 -4 -31 -7 -22 -23 11 -20 -7 -41 -19 -23 -3 6 -23 16 -43 22 -42 14 -78 53 -78 85 0 31 25 62 70 87 29 17 39 27 34 39 -4 8 -8 25 -8 36 -1 20 -3 21 -27 9 -40 -21 -128 -105 -146 -139 -46 -90 20 -166 199 -229 l63 -22 -3 -64 c-2 -35 2 -77 9 -93 16 -38 7 -44 -23 -16 -13 13 -17 17 -8 11 15 -12 16 -8 10 35 -7 57 -45 112 -89 129 -30 11 -31 10 -31 -17 0 -20 10 -35 35 -54 19 -15 35 -30 35 -34 0 -4 -27 -5 -59 -4 -34 2 -69 -2 -82 -9 -20 -10 -25 -9 -45 16 -21 27 -23 27 -39 11 -20 -19 -21 -18 22 -35 29 -12 33 -18 33 -53 0 -50 20 -97 56 -128 l28 -25 -17 27 c-18 29 -23 53 -8 44 15 -10 41 18 43 47 3 31 4 32 50 12 20 -8 48 -16 63 -19 38 -7 38 -9 13 -42 -15 -19 -16 -24 -5 -15 22 18 34 7 17 -16 -7 -10 2 -2 19 17 17 19 31 38 31 43 0 4 6 2 14 -5 7 -7 11 -19 9 -26 -6 -15 24 -6 47 14 13 11 20 11 43 -1 15 -7 27 -10 27 -4 0 5 11 9 25 9 15 0 38 14 59 35 40 40 72 44 106 15 30 -26 30 -74 1 -132 -11 -23 -19 -44 -17 -46 9 -8 68 67 92 115 23 45 24 56 15 86 -16 47 -48 74 -101 86 -64 15 -64 15 -115 -29 -47 -41 -62 -49 -48 -27 4 6 9 23 10 37 7 61 15 90 24 90 6 0 6 -7 -1 -19 -5 -11 -10 -34 -10 -52 0 -27 2 -30 15 -19 8 7 12 16 9 21 -3 5 1 6 8 4 8 -3 25 6 38 20 29 31 41 31 99 0 56 -31 101 -91 101 -135 0 -46 -65 -145 -118 -182 -46 -31 -65 -30 -44 2 17 28 15 40 -5 33 -10 -4 -20 -9 -23 -13 -3 -3 -22 -16 -43 -29 -65 -40 -189 -37 -173 5 4 11 -7 14 -52 16 -31 1 -73 3 -92 4 -19 2 -50 1 -68 -2 l-32 -5 22 -40 c13 -22 40 -60 61 -85 32 -36 45 -44 73 -44 27 0 34 4 34 19 0 17 10 20 78 26 171 14 229 39 318 138 132 147 162 242 95 305 -20 19 -101 62 -117 62 -10 0 -120 33 -154 47 -8 3 -30 5 -48 4 -22 -2 -34 3 -38 13 -5 13 -10 14 -20 5 -7 -6 -18 -7 -25 -3 -6 3 -39 8 -73 9 -100 3 -101 4 -88 17 6 6 38 11 71 11 33 0 58 4 55 8 -3 5 -13 9 -22 9 -12 1 -8 6 11 16 53 29 27 85 -49 103 -34 8 -35 9 -10 10 15 1 46 -9 67 -21 38 -21 42 -34 24 -94 -7 -23 15 -37 65 -42 49 -4 52 -3 42 14 -5 11 -12 51 -15 90 -6 78 -26 136 -60 173 -12 13 -16 21 -10 17 17 -9 53 11 53 29 0 8 -7 15 -15 15 -8 0 -15 9 -15 19 0 19 -18 31 -46 31 -12 0 -12 -4 -4 -20z m-170 -259 c0 -14 -18 -23 -30 -16 -6 4 -8 11 -5 16 8 12 35 12 35 0z m130 -17 c0 -17 -12 -18 -28 -2 -18 18 -15 27 8 21 11 -3 20 -12 20 -19z m98 -266 c-9 -13 -24 -24 -34 -25 -14 -1 -15 -1 -3 3 10 3 19 14 22 25 3 10 11 19 17 19 9 0 8 -6 -2 -22z m-328 -143 c0 -24 -24 -44 -37 -31 -9 8 14 56 27 56 5 0 10 -11 10 -25z m231 -218 c-13 -13 -26 -3 -16 12 3 6 11 8 17 5 6 -4 6 -10 -1 -17z m-61 -57 c0 -5 -7 -10 -15 -10 -8 0 -15 5 -15 10 0 6 7 10 15 10 8 0 15 -4 15 -10z"
       id="path18" />
    <path
       d="M636 848 c8 -29 14 -73 14 -98 1 -50 21 -86 45 -77 44 18 -14 227 -64 227 -4 0 -2 -23 5 -52z"
       id="path20" />
  </g>
  <g
     id="layer106"
     fill="#518834"
     stroke="none"
     style="fill:#00ff00">
    <path
       d="M446 991 c-5 -7 1 -11 14 -11 19 0 80 -26 80 -34 0 -2 -26 3 -57 10 -74 18 -95 17 -119 -1 -16 -13 -17 -16 -4 -24 9 -7 18 -7 24 -1 12 12 99 13 92 1 -6 -9 26 -21 54 -21 13 0 13 1 0 10 -9 6 -10 10 -3 10 23 0 73 -52 83 -88 5 -20 10 -64 9 -97 l0 -60 -14 50 c-8 28 -12 58 -9 67 7 23 -21 75 -43 82 -10 3 -40 8 -68 11 -27 3 -62 8 -76 11 -21 4 -28 0 -32 -15 -3 -12 -12 -21 -21 -21 -18 0 -20 -8 -7 -29 6 -9 15 -11 27 -6 11 5 41 9 67 11 26 1 55 8 63 14 11 10 21 7 49 -14 19 -15 35 -32 35 -38 0 -7 -5 -6 -15 2 -13 11 -15 8 -15 -21 0 -19 -3 -50 -6 -70 l-6 -36 47 -7 c26 -4 48 -6 50 -4 2 2 -1 41 -7 88 -16 144 -67 223 -152 237 -19 3 -36 1 -40 -6z m42 -118 c-10 -2 -28 -2 -40 0 -13 2 -5 4 17 4 22 1 32 -1 23 -4z"
       id="path23"
       style="fill:#00ff00" />
    <path
       d="M 294,944 C 203,883 146,811 148,757 150,695 250,619 382,580 l 46,-14 c 101.43995,-15.91821 160.6795,-25.97653 238,-16 31.25692,-5.58685 44.54329,-9.2668 72,-16 99,-14 192,-94 192,-164 0,-46 -65,-145 -118,-182 -46,-31 -65,-30 -44,2 17,28 15,40 -5,33 -10,-4 -20,-9 -23,-13 -3,-3 -22,-16 -42,-28 -41,-26 -97,-36 -146,-27 -27,5 -33,10 -29,26 5,17 -1,19 -51,21 -32,1 -73,3 -92,4 -19,2 -50,1 -68,-2 l -32,-5 22,-40 c 13,-22 40,-60 61,-85 30,-34 46,-44 69,-44 21,0 31,6 35,19 4,16 17,21 81,26 171,14 229,39 318,138 132,147 162,242 95,305 -20,19 -85.17416,55.53555 -116.28424,67.95346 C 826.4125,593.25939 748.06637,617.6713 690,627 c -8,3 -27.21054,5.9326 -48.62923,6.12517 C 614.40161,637.79005 588.20541,640.67867 560,645 c -6,4 -44,8 -86,9 -77.04293,1.96372 -82.7299,7.59845 -90.99211,11.36843 C 373.81653,668.86991 367,668 362,676 c -4,6 -24,17 -44,23 -42,14 -78,53 -78,85 0,31 25,62 70,87 29,17 39,27 34,39 -4,8 -8,25 -8,38 -1,12 -1,22 -2,22 -1,0 -19,-12 -40,-26 z M 501,137 c -13,-13 -26,-3 -16,12 3,6 11,8 17,5 6,-4 6,-10 -1,-17 z M 440,80 c 0,-5 -7,-10 -15,-10 -8,0 -15,5 -15,10 0,6 7,10 15,10 8,0 15,-4 15,-10 z"
       id="path25"
       sodipodi:nodetypes="ccccccscccccccccccccsccccscccccccscccscsccssssss"
       style="fill:#00ff00" />
    <path
       d="M730 823 c0 -12 7 -34 15 -50 8 -15 22 -46 31 -68 9 -22 18 -34 21 -28 6 17 -22 101 -47 138 -18 27 -20 28 -20 8z"
       id="path29"
       style="fill:#00ff00" />
  </g>
  <g
     id="layer107"
     fill="#5c5d98"
     stroke="none"
     style="fill:#0000ff">
    <path
       d="M453 165 c-7 -20 24 -55 48 -55 24 0 32 16 25 46 -5 19 -13 24 -37 24 -17 0 -32 -6 -36 -15z m48 -28 c-13 -13 -26 -3 -16 12 3 6 11 8 17 5 6 -4 6 -10 -1 -17z"
       id="path32"
       style="fill:#0000ff" />
    <path
       d="M384 95 c-4 -8 1 -27 11 -41 21 -33 68 -31 73 4 2 13 -2 30 -8 38 -16 19 -69 18 -76 -1z m56 -15 c0 -5 -7 -10 -15 -10 -8 0 -15 5 -15 10 0 6 7 10 15 10 8 0 15 -4 15 -10z"
       id="path34"
       style="fill:#0000ff" />
  </g>
  <g
     id="layer108"
     fill="#b96061"
     stroke="none"
     style="fill:#ff0000">
    <path
       d="m 223,449 c -23,-13 -27,-11 -48,15 -22,27 -24,28 -40,13 -15,-16 -14,-18 19,-34 33,-15 36,-21 36,-58 0,-28 9,-55 29,-87 37,-58 54,-69 29,-18 -23,46 -21,93 5,98 22,4 24,-46 2,-54 -8,-4 -12,-10 -9,-15 3,-5 13,-5 25,1 13,8 19,21 19,45 0,19 2,35 4,35 16.00148,-26.07005 0,0 -71,59 z"
       id="path37"
       sodipodi:nodetypes="ccccsccccscscc"
       style="fill:#ff0000" />
    <path
       d="M167 276 c-7 -18 7 -29 52 -45 47 -15 51 -6 7 16 -22 10 -35 22 -32 30 3 7 -1 13 -8 13 -8 0 -16 -6 -19 -14z"
       id="path39"
       style="fill:#ff0000" />
  </g>
  <g
     id="layer109"
     fill="#83827e"
     stroke="none"
     style="fill:#b3b3b3">
    <path
       d="M548 1048 c22 -22 12 -30 -30 -25 l-43 6 40 -20 c22 -10 47 -24 56 -30 21 -16 51 -5 43 16 -3 8 -12 15 -20 15 -7 0 -11 6 -8 14 3 8 -3 19 -15 25 -26 15 -38 14 -23 -1z"
       id="path42"
       style="fill:#b3b3b3" />
    <path
       d="M446 991 c-5 -7 1 -11 14 -11 19 0 80 -26 80 -34 0 -2 -26 3 -57 10 -74 18 -95 17 -119 -1 -16 -13 -17 -16 -4 -24 9 -7 18 -7 24 -1 12 12 99 13 92 1 -6 -9 26 -21 54 -21 13 0 13 1 0 10 -9 6 -10 10 -3 10 23 0 73 -52 83 -88 5 -20 10 -64 9 -97 l0 -60 -14 50 c-8 28 -12 58 -9 67 7 23 -21 75 -43 82 -10 3 -40 8 -68 11 -27 3 -62 8 -76 11 -21 4 -28 0 -32 -15 -3 -12 -12 -21 -21 -21 -18 0 -20 -8 -7 -29 6 -9 15 -11 27 -6 11 5 41 9 67 11 26 1 55 8 63 14 11 10 21 7 49 -14 19 -15 35 -32 35 -38 0 -7 -5 -6 -15 2 -13 11 -15 8 -15 -21 0 -19 -3 -50 -6 -70 l-6 -36 48 -6 c27 -3 50 -4 51 -4 1 1 -3 40 -9 87 -16 144 -67 223 -152 237 -19 3 -36 1 -40 -6z m42 -118 c-10 -2 -28 -2 -40 0 -13 2 -5 4 17 4 22 1 32 -1 23 -4z"
       id="path44"
       style="fill:#b3b3b3" />
    <path
       d="M644 853 c8 -21 17 -67 19 -102 6 -78 20 -96 37 -47 9 29 9 46 -4 88 -16 56 -41 98 -56 98 -6 0 -3 -17 4 -37z"
       id="path46"
       style="fill:#b3b3b3" />
    <path
       d="M326 798 c-35 -50 -16 -64 102 -72 l93 -6 -3 37 c-4 48 -31 63 -115 63 -53 0 -64 -3 -77 -22z m54 -4 c0 -14 -15 -34 -25 -34 -16 0 -28 16 -21 28 4 6 46 12 46 6z m128 -27 c3 -14 -1 -18 -20 -15 -12 2 -24 11 -26 21 -3 14 1 18 20 15 12 -2 24 -11 26 -21z"
       id="path48"
       style="fill:#b3b3b3" />
    <path
       d="M380 705 c7 -8 21 -15 32 -15 17 0 18 3 8 15 -7 8 -21 15 -32 15 -17 0 -18 -3 -8 -15z"
       id="path50"
       style="fill:#b3b3b3" />
    <path
       d="M290 550 c0 -24 8 -35 40 -55 22 -14 40 -30 40 -35 0 -6 -30 -9 -72 -8 -59 3 -73 0 -73 -12 0 -20 131 -84 172 -84 36 0 41 -7 38 -54 -2 -39 10 -31 36 25 15 32 18 34 18 14 1 -15 6 -21 15 -18 7 3 19 0 25 -6 8 -8 11 -8 11 0 0 6 -4 13 -9 15 -4 2 -11 13 -15 25 -6 18 -4 20 13 16 11 -3 17 -11 15 -18 -8 -19 34 -38 80 -37 29 2 48 11 77 37 44 39 76 44 110 16 29 -23 29 -74 0 -133 -11 -23 -19 -44 -17 -46 8 -8 81 91 97 131 32 80 -14 145 -109 155 -52 5 -92 -9 -92 -33 0 -7 -5 -17 -12 -21 -7 -5 -8 -3 -3 7 5 8 -5 1 -21 -15 -28 -28 -64 -46 -87 -46 -7 1 2 7 18 14 44 19 53 35 61 104 l6 63 -48 -3 c-47 -3 -49 -4 -52 -35 -4 -44 23 -45 32 -2 6 31 26 32 26 0 0 -24 -20 -41 -47 -41 -23 0 -28 13 -23 68 1 12 -2 22 -7 22 -4 0 -17 3 -29 6 -19 5 -20 1 -20 -43 1 -42 -2 -48 -21 -51 -20 -3 -23 1 -23 32 0 23 6 38 18 45 16 9 16 10 -1 17 -10 3 -20 4 -24 1 -3 -4 -6 -40 -7 -80 -1 -59 3 -79 17 -95 15 -16 16 -20 3 -25 -16 -6 -66 35 -66 54 0 6 8 3 18 -8 9 -10 14 -14 10 -9 -5 6 -8 16 -8 24 0 20 -59 92 -76 92 -8 0 -14 7 -14 15 0 18 5 19 32 4 15 -8 19 -8 14 0 -4 6 -20 18 -37 26 -29 16 -29 15 -29 -15z m188 -113 c9 4 13 1 10 -7 -2 -7 -14 -15 -26 -17 -17 -2 -22 2 -22 19 0 16 3 19 11 11 6 -6 18 -9 27 -6z m132 -12 c0 -20 -34 -37 -48 -23 -8 8 -5 16 11 28 24 19 37 17 37 -5z"
       id="path52"
       style="fill:#b3b3b3" />
    <path
       d="M457 533 c-4 -3 -7 -17 -7 -30 0 -33 24 -24 28 10 3 26 -7 35 -21 20z"
       id="path54"
       style="fill:#b3b3b3" />
    <path
       d="M671 522 c-6 -12 -11 -31 -10 -44 0 -17 4 -14 15 16 15 43 12 60 -5 28z"
       id="path56"
       style="fill:#b3b3b3" />
    <path
       d="M190 382 c0 -25 10 -54 29 -84 36 -57 55 -70 30 -21 -21 42 -25 83 -8 100 8 8 3 16 -20 27 l-31 17 0 -39z"
       id="path58"
       style="fill:#b3b3b3" />
    <path
       d="M453 165 c-7 -20 24 -55 48 -55 24 0 32 16 25 46 -5 19 -13 24 -37 24 -17 0 -32 -6 -36 -15z m57 -19 c0 -8 -5 -18 -11 -22 -14 -8 -33 11 -25 25 10 16 36 13 36 -3z"
       id="path60"
       style="fill:#b3b3b3" />
    <path
       d="M384 95 c-4 -8 1 -27 11 -41 21 -33 68 -31 73 4 2 13 -2 30 -8 38 -16 19 -69 18 -76 -1z m64 -12 c5 -17 -26 -29 -40 -15 -6 6 -7 15 -3 22 9 14 37 9 43 -7z"
       id="path62"
       style="fill:#b3b3b3" />
  </g>
  <g
     id="layer110"
     fill="#acaba5"
     stroke="none"
     style="fill:#e6e6e6">
    <path
       d="M365 950 c-7 -12 32 -12 60 0 16 7 13 9 -17 9 -20 1 -40 -3 -43 -9z"
       id="path65"
       style="fill:#e6e6e6" />
    <path
       d="M380 899 c0 -4 28 -10 63 -14 67 -8 89 -15 126 -42 24 -17 24 -17 12 5 -7 13 -22 27 -34 32 -29 13 -167 28 -167 19z"
       id="path67"
       style="fill:#e6e6e6" />
    <path
       d="M676 764 c0 -35 3 -67 7 -70 9 -10 9 108 -1 123 -4 6 -7 -18 -6 -53z"
       id="path69"
       style="fill:#e6e6e6" />
    <path
       d="M350 809 c-12 -8 -9 -9 13 -5 31 7 36 -8 10 -36 -14 -16 -14 -18 -1 -18 14 0 23 16 26 44 0 5 6 13 14 17 9 6 3 9 -17 9 -16 0 -37 -5 -45 -11z"
       id="path71"
       style="fill:#e6e6e6" />
    <path
       d="M570 743 c0 -50 3 -63 15 -63 20 0 20 66 0 100 -14 24 -14 22 -15 -37z"
       id="path73"
       style="fill:#e6e6e6" />
    <path
       d="M329 737 c5 -5 19 -7 32 -5 20 3 19 5 -9 9 -20 3 -29 2 -23 -4z"
       id="path75"
       style="fill:#e6e6e6" />
    <path
       d="M630 705 c0 -14 4 -25 9 -25 4 0 6 11 3 25 -2 14 -6 25 -8 25 -2 0 -4 -11 -4 -25z"
       id="path77"
       style="fill:#e6e6e6" />
    <path
       d="M495 521 c0 -29 -7 -45 -25 -61 l-25 -22 23 5 c19 5 23 2 20 -16 -2 -13 -13 -24 -28 -28 l-25 -7 26 -1 c14 -1 48 -3 75 -6 27 -3 43 -2 36 1 -7 3 -17 15 -23 26 -9 17 -9 20 4 15 8 -3 23 3 33 14 13 14 14 18 3 15 -21 -8 -47 16 -61 59 -17 52 -33 54 -33 6z"
       id="path79"
       style="fill:#e6e6e6" />
    <path
       d="M620 505 c0 -27 3 -45 7 -41 7 7 5 77 -3 85 -2 2 -4 -17 -4 -44z"
       id="path81"
       style="fill:#e6e6e6" />
    <path
       d="M455 519 c-4 -12 -2 -26 4 -32 8 -8 11 -2 11 21 0 37 -6 41 -15 11z"
       id="path83"
       style="fill:#e6e6e6" />
    <path
       d="M552 515 c4 -35 21 -36 22 -2 1 17 -3 27 -12 27 -8 0 -12 -9 -10 -25z"
       id="path85"
       style="fill:#e6e6e6" />
    <path
       d="M745 442 c-3 -3 -14 -7 -25 -9 -11 -2 -38 -14 -59 -27 -21 -14 -56 -32 -77 -41 l-39 -17 31 -15 c44 -22 96 -10 128 27 20 24 33 30 65 30 70 0 90 -65 47 -152 -31 -62 -11 -47 40 29 24 36 33 58 26 61 -7 2 -12 16 -12 31 0 16 -10 36 -22 48 -24 22 -92 45 -103 35z"
       id="path87"
       style="fill:#e6e6e6" />
    <path
       d="M239 422 c56 -39 182 -77 180 -54 0 4 -14 18 -30 31 -33 26 -85 41 -139 40 l-35 0 24 -17z"
       id="path89"
       style="fill:#e6e6e6" />
    <path
       d="M190 393 c0 -37 21 -91 42 -109 21 -19 21 -19 10 2 -15 28 -18 76 -8 93 5 8 3 17 -5 22 -22 14 -39 10 -39 -8z"
       id="path91"
       style="fill:#e6e6e6" />
    <path
       d="M445 359 c-5 -8 -4 -10 3 -5 8 5 10 -3 7 -26 l-5 -33 11 28 c12 31 -1 61 -16 36z"
       id="path93"
       style="fill:#e6e6e6" />
    <path
       d="M454 165 c-9 -22 7 -41 18 -21 5 9 16 16 23 16 18 0 20 -36 3 -44 -7 -3 -4 -5 7 -3 23 3 32 32 15 52 -16 19 -59 19 -66 0z"
       id="path95"
       style="fill:#e6e6e6" />
    <path
       d="M384 96 c-9 -22 13 -53 40 -58 37 -7 50 5 41 38 -7 29 -7 29 -16 6 -5 -14 -16 -22 -26 -20 -26 5 -27 27 -1 37 23 10 23 10 -5 10 -15 1 -30 -5 -33 -13z"
       id="path97"
       style="fill:#e6e6e6" />
  </g>
  <g
     id="layer111"
     fill="#d2d3d0"
     stroke="none"
     style="fill:#ffffff">
    <path
       d="M381 896 c2 -2 36 -6 74 -9 42 -3 58 -2 40 3 -30 8 -122 13 -114 6z"
       id="path100"
       style="fill:#ffffff" />
    <path
       d="M275 410 c-3 -5 2 -10 12 -10 10 0 36 -9 58 -20 44 -22 65 -25 65 -10 0 14 -78 49 -107 50 -12 0 -25 -4 -28 -10z"
       id="path102"
       style="fill:#ffffff" />
    <path
       d="M200 369 c0 -23 3 -39 6 -36 11 10 13 67 3 73 -5 3 -9 -14 -9 -37z"
       id="path104"
       style="fill:#ffffff" />
    <path
       d="M605 353 c-15 -14 -15 -17 -2 -25 19 -10 67 10 67 29 0 19 -45 16 -65 -4z"
       id="path106"
       style="fill:#ffffff" />
    <path
       d="M842 350 c14 -22 24 -19 15 5 -4 8 -11 15 -17 15 -6 0 -6 -7 2 -20z"
       id="path108"
       style="fill:#ffffff" />
    <path
       d="M832 280 c-7 -25 -15 -52 -18 -60 -3 -8 4 -1 16 17 13 19 20 44 18 60 -3 25 -4 23 -16 -17z"
       id="path110"
       style="fill:#ffffff" />
    <path
       d="M467 173 c-4 -3 -7 -13 -7 -22 0 -13 2 -14 9 -2 5 8 18 12 30 8 24 -6 29 8 5 17 -20 8 -29 8 -37 -1z"
       id="path112"
       style="fill:#ffffff" />
    <path
       d="M391 89 c-1 -27 24 -51 49 -47 13 1 25 9 28 15 2 9 -5 11 -27 7 -26 -5 -32 -3 -40 17 -6 14 -10 18 -10 8z"
       id="path114"
       style="fill:#ffffff" />
  </g>
</svg>
