/* XPM */
static char * gm_icon_serpent_and_gnu_xpm[] = {
"32 32 513 2",
"  	c None",
". 	c #0FBB22",
"+ 	c #16BC26",
"@ 	c #37C638",
"# 	c #A5DF91",
"$ 	c #8FDF83",
"% 	c #10BB20",
"& 	c #0FC120",
"* 	c #14BD25",
"= 	c #0CC11F",
"- 	c #A5EF7E",
"; 	c #171170",
"> 	c #B0A5D5",
", 	c #58CE26",
"' 	c #1BCE16",
") 	c #00CD13",
"! 	c #03C817",
"~ 	c #0DC31E",
"{ 	c #11BF22",
"] 	c #12BF22",
"^ 	c #15BD24",
"/ 	c #565E56",
"( 	c #08C619",
"_ 	c #13C81B",
": 	c #4ED32B",
"< 	c #C6F591",
"[ 	c #B9EC80",
"} 	c #E2F1BC",
"| 	c #CDEC9C",
"1 	c #65D126",
"2 	c #51D32A",
"3 	c #37CF28",
"4 	c #1BCA20",
"5 	c #13CA1C",
"6 	c #16C81D",
"7 	c #04C917",
"8 	c #0BC41D",
"9 	c #0AA718",
"0 	c #9B979B",
"a 	c #30392F",
"b 	c #4B584F",
"c 	c #156E1B",
"d 	c #10CB19",
"e 	c #1CCE19",
"f 	c #2FCE1D",
"g 	c #5BD226",
"h 	c #BFF289",
"i 	c #211C75",
"j 	c #AA9DD0",
"k 	c #35C832",
"l 	c #26D122",
"m 	c #44D528",
"n 	c #52D331",
"o 	c #61D539",
"p 	c #66D63B",
"q 	c #5CD337",
"r 	c #27CF22",
"s 	c #0DC81E",
"t 	c #3C7640",
"u 	c #A2A4A3",
"v 	c #364038",
"w 	c #6D6968",
"x 	c #0BBC1B",
"y 	c #2DD01C",
"z 	c #22CE1A",
"A 	c #38CF20",
"B 	c #43CF22",
"C 	c #64D426",
"D 	c #C5F48A",
"E 	c #7EE067",
"F 	c #198826",
"G 	c #244326",
"H 	c #26672A",
"I 	c #138A18",
"J 	c #25C521",
"K 	c #47CD2C",
"L 	c #53D234",
"M 	c #58D235",
"N 	c #3CD22A",
"O 	c #0D9715",
"P 	c #C6C1C7",
"Q 	c #3C613E",
"R 	c #00D913",
"S 	c #A6A8AA",
"T 	c #A01117",
"U 	c #15C421",
"V 	c #36D01E",
"W 	c #20CE1B",
"X 	c #1ECF1A",
"Y 	c #12CE17",
"Z 	c #17D01C",
"` 	c #0CD11C",
" .	c #0B9615",
"..	c #4E5145",
"+.	c #807F7E",
"@.	c #F2F1F2",
"#.	c #D9D5DA",
"$.	c #918890",
"%.	c #2A7529",
"&.	c #3DCE27",
"*.	c #5AD335",
"=.	c #62D436",
"-.	c #32CE1B",
";.	c #9E99A0",
">.	c #8C878E",
",.	c #079D14",
"'.	c #09BB18",
").	c #693430",
"!.	c #F20D16",
"~.	c #CB5F67",
"{.	c #08600C",
"].	c #0B9D15",
"^.	c #0F9018",
"/.	c #63CF6F",
"(.	c #75C47C",
"_.	c #3F5F3E",
":.	c #555D49",
"<.	c #817670",
"[.	c #3F3537",
"}.	c #8B8B8A",
"|.	c #B1B0AE",
"1.	c #D6D6D6",
"2.	c #D8D8D9",
"3.	c #D7D4D8",
"4.	c #216426",
"5.	c #36D920",
"6.	c #72DE2E",
"7.	c #478021",
"8.	c #C1C1C2",
"9.	c #949391",
"0.	c #335835",
"a.	c #0BCA1D",
"b.	c #16B624",
"c.	c #DD1A22",
"d.	c #BFA2A5",
"e.	c #D6DDDE",
"f.	c #E6E4E6",
"g.	c #ECE7ED",
"h.	c #E8E5E9",
"i.	c #DCDADD",
"j.	c #606461",
"k.	c #464745",
"l.	c #BAB7B7",
"m.	c #B5B3B3",
"n.	c #B8B5B5",
"o.	c #ACA9A9",
"p.	c #757673",
"q.	c #575C55",
"r.	c #B0B0AD",
"s.	c #B2B2B1",
"t.	c #C2BFC2",
"u.	c #769077",
"v.	c #7B8774",
"w.	c #CAC8CC",
"x.	c #B0AFAC",
"y.	c #908F8F",
"z.	c #384C39",
"A.	c #0ECE1C",
"B.	c #1ABC26",
"C.	c #57433D",
"D.	c #D8DBDB",
"E.	c #C1BEBD",
"F.	c #BDC4C4",
"G.	c #C2C2BE",
"H.	c #ADADAA",
"I.	c #5C5F5C",
"J.	c #363838",
"K.	c #757374",
"L.	c #535354",
"M.	c #A4A2A1",
"N.	c #B5B1B1",
"O.	c #757474",
"P.	c #424343",
"Q.	c #8A8986",
"R.	c #3D423C",
"S.	c #959493",
"T.	c #A3A3A3",
"U.	c #B2B0AE",
"V.	c #BAB9B7",
"W.	c #A1A09C",
"X.	c #898886",
"Y.	c #69646B",
"Z.	c #18751D",
"`.	c #12CD1A",
" +	c #1CC523",
".+	c #4C554F",
"++	c #818789",
"@+	c #7C8081",
"#+	c #777D7E",
"$+	c #505652",
"%+	c #555953",
"&+	c #4A4C4B",
"*+	c #B0ADAC",
"=+	c #ACAAAA",
"-+	c #B0ADAD",
";+	c #B1AEAE",
">+	c #A09D9C",
",+	c #BAB5B9",
"'+	c #4C4E4A",
")+	c #434843",
"!+	c #959391",
"~+	c #8E8D88",
"{+	c #8D8C87",
"]+	c #8F8F8D",
"^+	c #787677",
"/+	c #1A601E",
"(+	c #0ECD1E",
"_+	c #40D022",
":+	c #14C520",
"<+	c #3E453D",
"[+	c #50514B",
"}+	c #3C443A",
"|+	c #636A64",
"1+	c #797A7A",
"2+	c #353734",
"3+	c #807F7F",
"4+	c #72736A",
"5+	c #9C9A9A",
"6+	c #A8A6A6",
"7+	c #8B8B83",
"8+	c #333434",
"9+	c #BCB7BC",
"0+	c #6C6E6C",
"a+	c #4B4D48",
"b+	c #323832",
"c+	c #575458",
"d+	c #464545",
"e+	c #464E46",
"f+	c #1C601E",
"g+	c #0DC41F",
"h+	c #5FD536",
"i+	c #19CF1A",
"j+	c #13AF1F",
"k+	c #6E726F",
"l+	c #60615D",
"m+	c #414441",
"n+	c #1B1F1E",
"o+	c #888786",
"p+	c #A0A096",
"q+	c #777575",
"r+	c #979495",
"s+	c #C7C6BB",
"t+	c #3E3E3D",
"u+	c #BDB8BB",
"v+	c #5A5959",
"w+	c #6B686B",
"x+	c #4F4A4B",
"y+	c #284627",
"z+	c #246F26",
"A+	c #1AA223",
"B+	c #18C026",
"C+	c #61D239",
"D+	c #55D732",
"E+	c #1FAC1C",
"F+	c #148F20",
"G+	c #313730",
"H+	c #929291",
"I+	c #636763",
"J+	c #222224",
"K+	c #2D2F2F",
"L+	c #86A488",
"M+	c #809881",
"N+	c #99A898",
"O+	c #9FAC9D",
"P+	c #819B83",
"Q+	c #8AAD8C",
"R+	c #91B394",
"S+	c #28862E",
"T+	c #38AB3C",
"U+	c #1BB226",
"V+	c #16BB25",
"W+	c #16BE25",
"X+	c #2CC227",
"Y+	c #65D338",
"Z+	c #5BD632",
"`+	c #26B81C",
" @	c #147A1D",
".@	c #283D29",
"+@	c #1D7420",
"@@	c #18AE22",
"#@	c #19C922",
"$@	c #11C51B",
"%@	c #00CD12",
"&@	c #01CE11",
"*@	c #02CD12",
"=@	c #10C918",
"-@	c #15CA19",
";@	c #2FD223",
">@	c #3BCA2E",
",@	c #43CB30",
"'@	c #52CE35",
")@	c #5CD138",
"!@	c #60D539",
"~@	c #5DD337",
"{@	c #44C02B",
"]@	c #19921C",
"^@	c #13781E",
"/@	c #10BF21",
"(@	c #0BC61B",
"_@	c #19CA1D",
":@	c #2DCE1E",
"<@	c #3ED226",
"[@	c #4ED42D",
"}@	c #44D328",
"|@	c #53D730",
"1@	c #5BD531",
"2@	c #5ED532",
"3@	c #5CD432",
"4@	c #67D737",
"5@	c #68DA39",
"6@	c #5AD736",
"7@	c #5DD037",
"8@	c #4BB731",
"9@	c #2D9825",
"0@	c #187C1F",
"a@	c #15821F",
"b@	c #15BC25",
"c@	c #1BBE26",
"d@	c #32C829",
"e@	c #24CB1D",
"f@	c #37D225",
"g@	c #54D831",
"h@	c #33D425",
"i@	c #3FD52A",
"j@	c #28D222",
"k@	c #1AD01E",
"l@	c #11CD18",
"m@	c #0DCD18",
"n@	c #08CC1A",
"o@	c #08CA1A",
"p@	c #0ACB1A",
"q@	c #19B322",
"r@	c #209723",
"s@	c #177B1E",
"t@	c #15BC26",
"u@	c #23BF26",
"v@	c #3FCD2A",
"w@	c #42D62C",
"x@	c #02CE13",
"y@	c #0BCE18",
"z@	c #08CD16",
"A@	c #16B524",
"B@	c #399242",
"C@	c #418A47",
"D@	c #468148",
"E@	c #2A6E27",
"F@	c #448C45",
"G@	c #54774B",
"H@	c #6E7D67",
"I@	c #4E4B48",
"J@	c #6F6B6C",
"K@	c #17111B",
"L@	c #12C61D",
"M@	c #3FCB24",
"N@	c #4BCF2D",
"O@	c #36D427",
"P@	c #05C714",
"Q@	c #398241",
"R@	c #534954",
"S@	c #645C64",
"T@	c #615F61",
"U@	c #605F60",
"V@	c #616061",
"W@	c #4C4A4F",
"X@	c #706F71",
"Y@	c #817F7E",
"Z@	c #A09B9B",
"`@	c #636262",
" #	c #969697",
".#	c #252629",
"+#	c #24C81F",
"@#	c #57CE31",
"##	c #5DD535",
"$#	c #07CD17",
"%#	c #4D624F",
"&#	c #767673",
"*#	c #858581",
"=#	c #8E8E89",
"-#	c #8B8B87",
";#	c #888884",
">#	c #6E6F6B",
",#	c #535255",
"'#	c #7C7D7D",
")#	c #A7A4A1",
"!#	c #706F6E",
"~#	c #AEAEAE",
"{#	c #4F5153",
"]#	c #2CCC24",
"^#	c #66D43A",
"/#	c #51D433",
"(#	c #22A52F",
"_#	c #575058",
":#	c #585856",
"<#	c #535050",
"[#	c #8B8C87",
"}#	c #8D8D88",
"|#	c #4B4A49",
"1#	c #545452",
"2#	c #676764",
"3#	c #4D4C4F",
"4#	c #676767",
"5#	c #8E8B8A",
"6#	c #626262",
"7#	c #ABABA9",
"8#	c #18191E",
"9#	c #44CD32",
"0#	c #52CE31",
"a#	c #6BD63D",
"b#	c #24C129",
"c#	c #5E7362",
"d#	c #676865",
"e#	c #92928C",
"f#	c #8E8D89",
"g#	c #91918C",
"h#	c #656663",
"i#	c #474748",
"j#	c #636264",
"k#	c #656566",
"l#	c #918E8D",
"m#	c #5F605F",
"n#	c #A8A5A3",
"o#	c #29C02B",
"p#	c #4ED131",
"q#	c #66D53B",
"r#	c #13C51C",
"s#	c #20BB28",
"t#	c #545357",
"u#	c #605F5F",
"v#	c #48474A",
"w#	c #615F63",
"x#	c #5A5759",
"y#	c #777777",
"z#	c #525252",
"A#	c #848281",
"B#	c #808081",
"C#	c #666565",
"D#	c #1AC025",
"E#	c #43D02F",
"F#	c #38CD2A",
"G#	c #16C61E",
"H#	c #2A9A36",
"I#	c #6C676D",
"J#	c #69686A",
"K#	c #6F6E6F",
"L#	c #797879",
"M#	c #747474",
"N#	c #8F908F",
"O#	c #6C6E6E",
"P#	c #494949",
"Q#	c #767473",
"R#	c #B1B0AD",
"S#	c #15BD25",
"T#	c #31CC29",
"U#	c #41D42B",
"V#	c #0EC21F",
"W#	c #6A7164",
"X#	c #858584",
"Y#	c #5B5A59",
"Z#	c #4C4F4E",
"`#	c #6C5755",
" $	c #503032",
".$	c #423D3D",
"+$	c #9E9B9A",
"@$	c #8D8D8B",
"#$	c #838481",
"$$	c #23C129",
"%$	c #5AD738",
"&$	c #3CD22D",
"*$	c #557A50",
"=$	c #6C5758",
"-$	c #92585A",
";$	c #B16E70",
">$	c #DF9091",
",$	c #947976",
"'$	c #9D9C9B",
")$	c #595858",
"!$	c #AFABA8",
"~$	c #545554",
"{$	c #4CCC36",
"]$	c #48D232",
"^$	c #32C437",
"/$	c #707672",
"($	c #757A7B",
"_$	c #626766",
":$	c #727772",
"<$	c #979693",
"[$	c #666463",
"}$	c #817E7C",
"|$	c #8E8C87",
"1$	c #48D330",
"2$	c #21C423",
"3$	c #367937",
"4$	c #847C80",
"5$	c #7C7674",
"6$	c #66635E",
"7$	c #969594",
"8$	c #AFADAA",
"9$	c #373C37",
"0$	c #1ACD1D",
"a$	c #01CC13",
"b$	c #17701B",
"c$	c #5C665D",
"d$	c #7D7A78",
"e$	c #9C9997",
"f$	c #646362",
"g$	c #26D022",
"h$	c #07CB16",
"i$	c #10B21C",
"j$	c #253C2A",
"k$	c #534C54",
"l$	c #15CF1C",
"m$	c #03CF15",
"n$	c #0EBD1C",
"                                                                ",
"                    .                                           ",
"                + @ # $ % & *                                   ",
"                = - ; > , ' ) ! ~ { ] { ^     /                 ",
"              ( _ : < [ } | 1 2 3 4 5 6 7 8 9 0 a               ",
"          b c d e f g h i j k l m n o p q r s t u               ",
"        v w x y z A B C D E F G H I J K L M N O P Q R           ",
"        S T U V W X Y Z `  ...+.@.#.$.%.&.*.=.-.;.>.,.'.        ",
"      ).!.~.{.].^./.(._.:.<.[.}.|.1.2.3.4.5.6.7.8.9.0.a.b.      ",
"      c.d.e.f.g.h.i.j.k.l.m.n.o.p.q.r.s.t.u.v.w.x.y.z.A.B.      ",
"      C.D.E.F.G.H.I.J.K.L.M.N.O.P.Q.R.S.T.U.V.W.X.Y.Z.`. +      ",
"        .+++@+#+$+%+&+*+=+-+;+=+>+,+'+)+!+~+{+]+^+/+(+_+:+      ",
"          <+[+}+|+1+2+3+4+5+6+7+8+9+0+a+b+c+d+e+f+g+h+i+j+      ",
"              k+l+m+n+o+p+q+r+s+t+u+v+w+x+y+z+A+B+C+D+E+F+      ",
"            G+H+I+J+K+L+M+N+O+P+Q+R+S+T+U+V+W+X+Y+Z+`+ @        ",
"              .@+@@@#@$@%@&@*@=@-@;@>@,@'@)@!@~@{@]@^@          ",
"            /@(@_@:@<@[@}@|@1@2@3@4@5@6@7@8@9@0@^@a@            ",
"        b@c@d@e@f@g@h@i@j@k@l@m@n@o@p@q@r@s@                    ",
"      t@u@v@w@x@y@z@A@B@C@D@E@F@G@H@I@J@K@                      ",
"      L@M@N@O@P@Q@R@S@T@U@V@W@X@Y@Z@`@ #.#                      ",
"      +#@###$#%#&#*#=#=#-#;#>#,#'#)#!#~#{#                      ",
"      ]#^#/#(#_#:#<#[#}#|#1#2#3#4#5#6#7#8#                      ",
"      9#0#a#b#c#d#e#f#=#g#h#i#j#k#l#m#n#                        ",
"      o#p#q#r#s#t#U@U@u#v#w#x#y#z#A#B#C#                        ",
"        D#E#F#G#H#I#J#K#L#M#N#O#P#Q#R#                          ",
"          S#T#U#V#W#X#Y#Z#`# $.$+$@$#$                          ",
"            $$%$&$*$=$-$;$>$,$'$)$!$~$                          ",
"              {$]$^$/$($_$:$<$[$}$|$                            ",
"                  1$2$3$4$5$6$7$8$9$                            ",
"                    0$a$b$c$d$e$f$                              ",
"                      g$h$i$j$k$                                ",
"                          l$m$n$                                "};
